<svg xmlns="http://www.w3.org/2000/svg" version="1.1" xmlns:xlink="http://www.w3.org/1999/xlink" xmlns:svgjs="http://svgjs.dev/svgjs" width="1000" height="1000" viewBox="0 0 1000 1000"><rect width="1000" height="1000" fill="#c8f6c0"></rect><g transform="matrix(0.7,0,0,0.7,150.0000000000001,106.25)"><svg viewBox="0 0 320 360" data-background-color="#c8f6c0" preserveAspectRatio="xMidYMid meet" height="1125" width="1000" xmlns="http://www.w3.org/2000/svg" xmlns:xlink="http://www.w3.org/1999/xlink"><defs></defs><g id="tight-bounds" transform="matrix(1,0,0,1,-5.684341886080802e-14,0)"><svg viewBox="0 0 320 360" height="360" width="320"><g><svg></svg></g><g><svg viewBox="0 0 320 360" height="360" width="320"><g><path d="M85.508 32.884c0-1.117 0.558-2.233 1.675-2.233 1.117 0 2.233 0.558 2.234 2.233 0.558 0 1.675 0 2.233-0.558 2.233 0 4.467-0.558 6.141 0 1.675 0.558 2.792 0.558 4.467 1.117 1.675 0.558 2.792 0 3.908-0.559 2.233-0.558 3.908-1.675 6.141-2.233 1.117-0.558 1.675-0.558 2.792-0.558 1.117-0.558 2.233-0.558 3.908-1.117 2.792-0.558 5.583-1.117 7.817-2.233 2.233-1.117 4.467-1.117 6.699-1.675 1.117 0 1.675-0.558 2.792-1.117 0.558 0 0.558-0.558 1.116-1.116 1.117-0.558 1.675-1.117 2.792-0.559 0.558 0.558 1.675 0.558 2.233 0h0.559c3.35 0 6.7-0.558 10.608 0 0.558 0 1.117 0 1.116 0 1.675-1.117 3.908-1.117 6.142-1.116 0.558 0 1.675 0 2.233 0h0.558c2.233 0 4.467 0 6.142 0.558 1.675 0 2.792 0.558 4.466 1.117 1.675 0 2.792 0 4.467 0.558 1.117 0 2.233 0 3.35 0 0.558 0 1.117 0 1.116 0 2.233 0.558 4.467 0.558 6.7 0.558 1.675 0.558 3.35 1.117 5.583 1.117 0.558 0 1.117 0 1.675 0 0.558 0 1.117 0.558 1.675 0.558l0.558 0.559c2.233 0 3.908 1.117 6.142 1.116 0.558 0 1.675 0 2.233 0.559 1.675 1.117 3.908 1.675 6.141 1.675 1.117 0 1.675 0.558 2.234 1.116 1.675 0.558 2.792 1.117 4.466 1.675 1.117 0.558 2.233 0 3.35 0.558 1.675 0.558 3.908 1.117 5.583 2.792 1.117 1.117 2.233 1.117 3.908 2.233 0.558 0 1.117 0.558 1.675 1.117 1.675 1.117 3.35 2.233 5.025 2.791 0.558 0 1.117 0.558 1.675 0.559 1.675 1.117 3.35 2.792 5.583 3.908 1.117 0.558 1.675 1.117 2.792 1.675h0.558c1.675 1.675 3.908 2.792 5.583 4.466 1.675 1.675 2.792 2.792 5.025 3.909 0 0 0 0 0 0.558 0.558 1.117 1.117 1.675 2.233 2.233 1.117 0.558 1.675 1.117 2.234 1.675 1.675 1.117 3.35 2.233 4.466 3.35 0.558 0.558 1.117 1.117 2.233 2.233 0.558 0.558 1.117 1.117 1.675 1.117 2.233 0.558 3.35 2.233 5.025 3.908 1.117 1.117 2.792 2.792 3.908 3.908 0.558 0.558 1.117 1.675 1.675 2.792 1.117 3.35 2.792 6.7 4.467 9.491 0 0 0 0.558 0.558 1.117v0.558c1.117 1.117 1.675 2.792 2.792 3.908 0.558 0.558 0.558 1.117 1.116 1.675 1.117 1.675 1.675 3.908 2.792 5.583 1.675 2.792 2.792 5.583 3.908 8.375v0.558c0.558 1.117 1.117 2.233 1.675 3.908 0 1.117 1.117 2.233 1.675 3.909 0.558 2.792 2.233 5.583 2.791 8.933 0 0.558 0.558 1.117 0.559 2.233 0.558 1.675 1.117 3.35 1.675 5.025 0 0.558 0.558 1.117 1.116 1.675 1.117 1.117 1.117 2.233 1.117 3.35-0.558 2.233 0 4.467 0.558 6.699 0 0.558 0 1.117 0 2.234 0.558 2.233 1.117 5.025 1.117 7.258 0 0.558 0 1.675 0 2.233 0 1.675 0.558 3.35 1.675 5.025 0 0.558 0.558 0.558 0.558 0.558 0.558 0.558 1.117 1.675 1.675 2.233 0.558 0.558 0.558 0.558 1.117 1.117 1.117 1.117 1.675 2.233 1.675 3.908 0 0.558-0.558 1.675-0.559 2.233 0 0.558 0 1.675 0.559 2.234 0.558 0.558 0.558 1.117 0.558 1.675 0 0.558-0.558 1.117-1.117 1.116v0c-0.558 1.675-2.792 2.233-3.35 3.908-0.558 2.233-1.117 4.467-1.674 6.7-0.558 1.675-0.558 2.792-0.559 4.467 0 1.675-0.558 2.792-0.558 4.466-0.558 2.233-1.117 4.467-1.675 6.7 0 1.117-0.558 2.233-0.558 3.35 0.558 0.558 1.117 1.117 1.675 1.116 1.117 1.117 2.233 2.233 3.349 3.35 0.558 0.558 0.558 1.117 0 1.117-0.558 0.558-1.117 0.558-1.674 0.558-0.558-0.558-1.675-1.117-2.234-1.116-0.558-0.558-1.675-1.117-2.791-0.559 0 1.117-0.558 2.233-0.559 2.792-0.558 1.117-1.117 2.792-1.116 3.908-0.558 2.233-1.675 3.908-2.233 6.142-1.117 2.792-2.233 5.025-3.35 7.258-0.558 1.117-1.117 2.233-1.675 3.35v0c0 1.675-1.675 3.35-2.234 5.024-1.117 2.233-2.233 4.467-3.349 7.258-0.558 1.117-1.117 2.233-1.675 2.792-1.117 2.792-2.233 5.025-3.909 7.258-1.117 1.675-2.233 2.792-3.349 3.35-1.117 1.117-2.233 2.233-3.35 3.35-0.558 0.558-1.117 1.117-1.675 1.675-0.558 0.558-0.558 0.558-1.117 1.116-1.117 1.675-2.792 2.792-3.908 4.467-1.117 1.117-1.675 2.233-3.35 3.35-1.117 1.117-2.233 2.792-3.908 3.35-0.558 0.558-1.117 1.675-1.675 2.233-0.558 0.558-1.117 1.675-1.675 2.233 0 1.117 0.558 2.233 0.558 2.792 0 1.675-1.675 2.233-2.791 1.116-1.675-1.117-1.675-1.117-3.35 0-1.675 1.117-3.35 2.792-5.583 3.35-0.558 0-0.558 0.558-1.117 0.559-1.117 0.558-1.675 1.675-2.792 2.233-1.117 1.117-2.792 1.675-3.908 2.791-0.558 0.558-1.117 0.558-1.675 1.117-1.675 1.117-3.35 1.675-5.024 3.35-0.558 0.558-1.117 0.558-1.675 1.117 0 0.558 0 0.558 0 1.116 0 1.117-1.117 2.233-2.792 1.675-1.675-0.558-2.792 0-4.466 0-1.675 0.558-3.35 1.675-5.025 2.233-0.558 0-1.117 0.558-1.675 1.117-1.675 1.117-3.35 1.675-5.025 2.233-1.117 0-2.233 1.117-3.35 1.117-0.558 0-1.117 0.558-1.675 0.558h-0.558c-2.233 1.675-4.467 2.792-6.7 4.467-0.558 0-0.558 0.558-1.117 1.116-0.558 1.117-1.117 1.675-2.233 1.675-2.792 0-3.908 2.233-3.35 4.467 0 0.558 0.558 1.117 0.559 1.675 0.558 1.117 0 2.233-0.559 2.791-0.558 0.558-2.233 0.558-2.791-0.558-1.117-1.117-1.675-2.233-2.234-3.908-0.558-1.117-1.675-2.233-2.791-2.792-1.117-0.558-2.233-0.558-3.35 0-0.558 0-0.558 0.558-1.117 0.558-1.117 1.117-2.792 1.675-4.466 1.117-0.558 0-1.675 0-1.675 0.558-0.558 0.558-0.558 1.675 0 2.234 1.117 1.117 0.558 2.233 0.558 3.908 0 2.233-1.675 3.35-3.908 2.233-0.558-0.558-1.117-0.558-1.675-1.117-0.558 0-0.558-0.558-0.558-1.116-0.558-0.558-0.558-1.675-1.117-2.792-1.117 0.558-2.233 0.558-3.35 1.117-0.558 0-1.117 0.558-1.675 0.558-1.675 0-2.233 0-2.791-1.675-0.558-1.675-1.675-1.675-2.792-2.233-2.233-0.558-5.025-0.558-7.258-1.675h-0.558c-2.233-1.675-4.467-1.675-7.258-1.675-1.675 0-3.35 0.558-5.025 0.558-1.675 0-2.792 0.558-3.908 1.675-0.558 0.558-1.117 1.117-1.675 1.117-0.558-0.558-0.558-1.117-1.117-1.675v-0.558c0-0.558-0.558-1.117-1.116-0.559-1.117 0.558-2.233-0.558-3.35-1.116-0.558-0.558-1.675-1.675-1.675-2.792-0.558-0.558-1.117-1.117-1.675-1.116-1.117 0-2.792-0.558-3.908-0.559-0.558 0-1.117 0-1.117-0.558-0.558-0.558-1.117-0.558-2.233-0.558-0.558 0-0.558-0.558-1.117-0.559 1.117 1.117 1.675 2.233 2.233 3.35 0 0.558 0.558 0.558 0.559 1.117 0.558 1.117 0 1.675-1.675 1.675-1.117 0-1.117 0-1.675 0.558 0 1.117 0 1.675 0 2.792 0 0.558 0 1.117-1.117 1.675 0 0-0.558 0-0.558 0.558-0.558 0.558-0.558 1.117 0 1.675 1.675 1.117 2.792 1.675 4.466 2.233 1.675 0 1.675 1.117 2.234 2.233 0.558 1.117 0 1.675-0.559 2.792-1.117 1.117-2.233 2.233-3.35 3.35-1.675 0.558-2.792 2.233-4.466 2.233-1.117 0-2.233-0.558-2.792-1.675-0.558-2.792-0.558-5.025 0.559-7.816 0-0.558 0.558-1.117 0-1.675-5.025 0-5.025-1.117-5.025-1.675 0-1.117 0.558-1.675 0.558-2.792 0.558-1.117 0-1.675-1.675-2.233-0.558 0-1.117 0-1.675 0-0.558 0-0.558-0.558-1.675-0.558 1.117-0.558 1.675-0.558 2.792-1.117-0.558-2.233-1.117-3.908-2.792-5.025-0.558-0.558-1.117-1.117-1.116-2.233 0-1.675-1.117-2.792-1.675-3.908-1.117-1.675-3.35-2.233-5.025-2.233-1.675-0.558-2.792-0.558-4.467-1.117-1.675-0.558-3.35-2.233-5.024-2.792-0.558-0.558-1.117-1.117-2.234-1.674-2.233-1.117-3.908-2.792-5.583-4.467-1.117-0.558-1.675-1.675-2.791-2.233-1.117-1.117-1.675-2.233-2.792-2.792-1.117-1.117-2.233-2.233-3.908-3.35-1.675-1.117-2.792-2.792-4.467-4.466-1.117-1.675-2.792-2.792-4.466-3.908-0.558 0-1.117 0-1.675 0-0.558 0-1.117 0.558-1.675 0.558-1.675 0.558-2.792 1.675-4.467 2.233 0.558-0.558 0.558-0.558 0-1.675-0.558-0.558-1.117-1.117-1.674-1.116-1.117 0-2.233 0-3.35 0-2.233 0-4.467 0.558-6.7 0.558-1.675 0-3.908 0.558-5.583 1.117 0.558 1.117 0.558 1.675 1.116 2.791-1.117 0.558-2.233 0.558-3.35 0.558-0.558 0-1.675 0.558-2.233 1.117-0.558 0-0.558 0.558-1.116 0-1.117-0.558-2.233 0-3.35 0.558h-0.559c0 0 0-0.558 0.559-0.558 0.558-0.558 1.117-1.117 1.675-1.675 0.558-0.558 1.117-0.558 2.233-1.117-0.558-0.558-0.558-1.117-0.558-1.116-0.558-0.558-1.117-0.558-1.675 0-0.558 0.558-1.117 1.117-1.675 1.675-0.558 0.558-1.117 0.558-1.675 0-0.558-0.558-0.558-1.117 0-1.675 0-0.558 0.558-1.117 1.116-1.675 0.558-0.558 0.558-1.117 1.117-1.675-1.117-1.117-1.675-2.233-2.792-2.792-1.675-1.117-3.35-2.792-4.466-4.466-1.117-2.233-2.792-3.908-5.025-5.025-0.558-0.558-1.117-1.117-1.675-1.675-0.558-0.558-0.558-0.558-1.116-1.117-1.675 0.558-2.792 1.675-4.467 2.234-0.558 0-0.558 0.558-1.117 1.116-0.558 1.117-1.675 1.117-2.791 1.117-0.558 0-1.117-0.558-0.558-1.117 0.558-1.117 1.117-2.233 2.791-1.675 0 0 0.558 0 0.558-0.558 1.117-1.117 2.233-2.792 3.909-3.908-0.558-1.675-1.675-2.792-2.234-3.908-0.558-0.558-0.558-1.117-0.558-2.234 0-0.558 0-0.558-0.558-1.116 0 0-0.558 0-1.117 0.558-0.558 0.558-1.675 1.117-2.791 0 0-0.558 0-1.117 0.558-1.675l0.558-0.558c1.675-0.558 1.675-2.233 1.675-3.908v-0.559c-0.558-1.117-0.558-1.675 0.558-2.791 1.675-1.117 3.35-3.35 3.909-5.025 0.558-1.117 1.675-1.675 2.791-2.792 1.117-1.117 2.233-2.233 2.792-3.908h0.558c2.233 0.558 2.792-1.117 3.908-2.791 0-0.558 0-1.117 0.559-1.117 1.117-1.117 1.117-2.233 0.558-3.908 0-0.558-0.558-1.675-0.558-2.233 0-0.558 0-0.558-0.559-1.117-1.675-1.117-1.675-2.233 0-3.35 1.117-0.558 1.117-1.675 1.675-2.233 0.558-1.117 0.558-2.233 0.559-3.908-0.558-1.675-0.558-3.908-1.117-5.583-0.558-2.233-1.117-5.025-1.675-7.259 0-0.558 0-0.558 0-1.116 0-1.675 0-2.792-0.558-4.467-0.558-0.558-0.558-1.675-0.559-2.233-0.558-1.675-1.117-2.792-2.791-3.35-1.675-1.117-3.908-1.675-5.583-2.791-0.558-0.558-1.117 0-1.675 0.558-0.558 1.117-1.675 2.233-2.234 3.35-0.558 0.558-1.117 1.675-1.675 2.791-1.117 1.117-3.35 2.233-5.024 0.559-0.558-1.117-1.117-1.675 0-2.792 1.117-1.675 2.233-3.35 3.908-4.466 0.558-0.558 1.117-1.675 1.675-2.234 0.558-1.117 0.558-2.233 0.558-3.35-0.558-2.233-1.117-4.467-1.117-7.258 0-2.792 0-5.025 0.559-7.816 0.558-1.117 0.558-2.792 1.116-3.908 0-0.558 0.558-1.675 1.117-2.233 1.117-1.117 2.233-2.233 2.792-3.909 0.558-1.675 1.675-3.35 1.675-5.024 0-0.558 0.558-1.117 0.558-1.675 0-0.558 0.558-1.675 0.558-2.234-0.558-1.675 0-2.792 0.558-3.908 0.558-1.117 1.117-2.792 1.675-3.908 1.117-2.233 1.117-5.025 3.35-7.258 0.558-1.117 1.117-2.233 1.675-3.35 0.558-2.233 1.675-3.908 2.792-5.583 0.558-0.558 0.558-0.558 0.558-1.117 0.558-1.675 1.675-3.35 2.792-5.025 1.117-1.675 1.117-3.35 1.675-5.024 0-0.558 0-1.117 0.558-1.675 1.675-1.675 1.117-3.908 0.558-6.142-1.117-2.792-1.675-5.583-1.116-8.374 0-0.558 0-1.117 0.558-1.117 0.558-1.117 0.558-1.675 1.117-2.792v-0.558c1.117-1.117 2.233-2.792 3.908-3.35 2.233-1.117 4.467-1.675 7.258-2.233 2.233 0 4.467-1.117 6.141-3.35 0-0.558 0.558-0.558 1.117-1.117l0.558-0.558c0.558-1.117 1.117-1.675 1.675-2.233 1.117-1.117 2.233-2.792 3.35-3.908 1.117-1.117 2.233-2.792 3.908-4.467l0.559-0.558c1.117-1.117 2.233-2.233 3.349-2.792 1.117-1.117 2.233-2.233 3.35-3.35 1.117-1.117 1.675-2.233 2.792-3.35 1.117-0.558 2.233-1.675 3.35-2.791 1.117-1.117 2.233-2.233 2.791-2.792 1.117-1.117 2.792-2.233 3.909-2.791 1.117-0.558 2.233-1.117 2.791-2.792 0.558-1.675 1.117-2.792 1.675-4.466 0-1.117 0.558-2.233 1.117-3.35 0.558 0 1.117 0 2.233-0.558-0.558-0.558-1.117-0.558-1.117-1.117 0-0.558 0.558-1.117 0.559-1.117 0-0.558 0.558-1.117 0.558-1.675 0 0 0.558 0 0.558-0.558 0 0 0.558 0 0.559-0.558-1.117 0.558-1.675 0-2.234-0.559 0.558 0.558 1.117 0.558 2.234 1.117 0 0 0.558 0 0.558-0.558 0-0.558 0-1.117 0-1.117 0 0-0.558 0-1.117 0-0.558 0-1.117 0.558-1.675 0.558zM182.097 295.292c0-0.558-0.558-0.558-0.559-1.117-0.558-1.117 0-1.675 0.559-2.233 0.558-0.558 1.117-0.558 2.233-0.558 1.117 0.558 1.675 1.117 1.675 2.233 0 0.558 0 1.675 0 2.233 0.558 2.233 0.558 2.233 2.791 2.233 1.117 0 2.233 0 3.35 0 2.233-0.558 4.467-1.675 6.7-2.233 2.233-0.558 4.467-1.117 6.7-1.675 0.558 0 1.117 0 2.233 0 2.233 0.558 3.908 0 5.583-1.117 0.558-0.558 1.675-0.558 2.233-1.116 1.117-0.558 2.233-0.558 3.35-1.117 2.792-1.675 5.583-2.792 7.817-4.466 1.675-1.117 3.35-2.233 5.024-3.35 1.675-1.117 3.35-2.233 5.025-3.35 1.117-0.558 2.792-1.675 3.908-2.792 2.233-1.675 3.908-3.35 6.142-4.466 1.117-0.558 1.675-1.117 2.233-1.675 1.117-0.558 1.675-1.675 2.792-2.233 0.558-0.558 1.117-1.117 2.233-1.675 0.558-0.558 0.558-0.558 0.558-1.117 1.675-1.117 3.35-3.35 4.467-5.025 1.117-1.117 2.233-2.233 3.35-3.908 1.675-1.675 2.792-3.908 4.466-6.141 1.117-1.117 2.233-2.792 2.792-3.909 1.117-2.233 2.233-4.467 3.908-6.141v-0.558c1.117-2.233 2.233-4.467 3.35-6.7 1.675-2.792 2.792-6.141 4.466-8.933 0.558-1.117 1.117-2.233 1.117-3.35 1.117-2.233 1.675-4.467 2.233-6.7 0-0.558 0-0.558 0.559-1.116 1.675-3.35 2.792-6.7 3.349-10.608 0.558-2.233 1.117-4.467 1.675-6.7 1.117-3.35 1.117-6.141 1.675-9.491 0.558-2.233 0.558-5.025 0.559-7.258 0.558-3.35 0.558-7.258 0-10.608 0-2.792-0.558-6.141-0.559-8.933 0-2.792-0.558-5.025-1.116-7.817-0.558-2.792-1.117-5.025-1.675-7.816-1.117-2.233-1.675-4.467-2.234-7.258-0.558-2.233-1.675-3.908-1.674-6.142 0-1.675-0.558-3.35-2.234-3.908-1.675-0.558-2.792-1.117-4.466-2.233-3.35-2.233-5.025-5.025-4.467-8.375 0-1.675 0.558-3.908 1.117-5.583 0.558-1.675 1.117-3.35 0-4.467-0.558-1.675-1.675-2.792-2.233-3.908-1.117-1.675-1.675-2.792-2.792-3.908-1.117-2.233-2.233-4.467-3.908-6.141-2.233-2.792-3.908-5.583-6.7-7.817l-0.558-0.558c-1.675-2.233-3.35-4.467-5.583-6.142-1.117-1.117-2.233-2.233-3.35-2.791-0.558-0.558-1.117-1.117-2.233-1.675-1.675-1.117-3.35-1.675-4.467-2.792-1.675-1.675-3.908-2.792-5.583-3.908 0 0-0.558 0-0.558-0.558-2.233-1.117-3.908-1.675-6.142-2.792-2.233-1.117-4.467-1.675-6.7-1.675-0.558 0-0.558 0-1.116 0-0.558-0.558-1.675-0.558-2.233-0.558-0.558 0-0.558 0-1.117 0-1.117-0.558-2.792 0-3.908 0-2.233 0.558-4.467 0.558-6.7-0.558-2.792-1.117-5.025-2.233-7.258-3.35-1.675-1.117-2.792-2.233-4.467-3.35-3.35-2.792-6.7-6.141-10.608-8.933 0.558-2.792-0.558-3.35-2.791-3.35-1.117 0-2.233 0.558-3.35 1.117-0.558 0.558-0.558 0.558-1.117 1.116-1.675 1.117-2.792 2.792-4.466 3.909-2.792 1.675-3.908 1.117-6.142 0-0.558-0.558-1.117-1.117-1.675-1.675-1.117-1.117-2.233-2.792-2.791-3.909-1.117-2.233-3.35-2.233-5.583-2.233-1.117 0-2.792 0.558-3.908 0.558-2.233 0-4.467 1.117-5.584 2.792-1.117 1.675-2.233 3.35-3.908 5.025-0.558 0.558-1.675 1.117-2.233 2.233-1.117 1.117-2.233 1.117-3.35 0-0.558-0.558-1.117-0.558-1.675-1.117-0.558 0.558-1.117 1.117-1.117 1.675-0.558 1.117-1.117 2.233-1.674 3.909-0.558 1.675-1.675 3.35-2.792 4.466-0.558 0.558-0.558 0.558-1.117 1.117-0.558 1.117-2.233 1.675-3.35 1.675-1.117 1.117-2.233 2.792-2.791 3.908-0.558 1.117-1.117 2.233-1.675 3.908-0.558 0.558-0.558 1.675-1.117 2.233-0.558 1.117-0.558 1.675-0.558 2.792 0.558 1.675-0.558 2.233-2.233 2.791-1.117 0-1.117 0-1.675 1.117 0 1.675 0.558 2.792 1.116 4.467 0.558 0.558 1.117 1.675 1.117 2.233 0 1.117 0.558 1.675 1.675 2.233 0.558 0.558 1.117 1.117 1.675 1.117 0.558 0 0.558 0.558 1.117 0.558 0.558 0.558 1.117 0 1.116-0.558 0.558-1.675 1.117-3.35 1.117-5.025 0.558-2.233 0.558-3.908 1.116-6.142 0.558-1.117 1.117-1.675 1.675-2.233 0 0 0.558 0 1.117 0v0.559c-0.558 2.792-1.675 6.141-2.233 8.933-0.558 1.117-0.558 2.233-1.117 3.349 0 0.558-0.558 1.117-1.116 1.117-1.117 0.558-2.233 1.117-3.35 1.117-0.558 0-1.117 0-1.675 0-1.117-0.558-2.233-1.675-3.35-2.234-0.558-0.558-1.117-1.117-1.675-1.674-0.558-1.117-1.117-2.233-1.675-3.35-0.558-1.117-1.117-1.675-2.233-2.234-0.558-0.558-1.117-0.558-1.675-1.116-1.117-1.117-2.233-1.675-3.908-1.675-0.558 0-1.675 0-2.234 0-0.558 0-1.675 0.558-2.233 1.116-1.117 0.558-1.675 0.558-2.791 0-2.792-1.117-5.583-0.558-8.375 0.559-1.117 0.558-2.233 1.117-3.35 1.116-2.792 0-5.025 0-7.816 0-2.792 0-5.025-0.558-7.817-1.116-1.117 0-2.233 0-3.35 0-2.233 0.558-2.792 2.233-2.233 4.466 0.558 2.233 1.117 5.025 1.117 7.258 0 1.675 0 3.35 0 5.025 0 1.117 0 1.675 0 2.792 0 1.675-0.558 3.35-0.559 5.025-0.558 3.35-2.233 6.141-4.466 8.374-1.675 1.675-3.908 3.35-6.142 3.908-1.117 0.558-2.233 1.117-3.908 1.675-2.792 1.117-5.025 3.35-6.7 6.142-0.558 1.117-1.117 2.233-1.674 3.35-1.117 1.675-1.675 2.792-2.792 4.466-0.558 1.117-1.675 2.233-2.233 3.35-0.558 1.117-1.675 1.675-1.675 2.792-1.117 2.233-1.675 4.467-2.792 6.699-0.558 1.117-0.558 2.792-1.116 3.909-1.117 2.233-1.117 4.467-1.117 7.258 0 0.558 0 1.117 0 2.233 0 2.792-0.558 6.141-0.558 8.933 0 2.792 0 5.583 0.558 8.375 0 1.117 0 2.792 0 3.908 0 2.233 0.558 5.025 0.558 7.258 0 2.233 0 5.025 1.117 7.258v0.558c0.558 2.233 0.558 4.467 1.116 6.7 0 0.558 0 1.117 0.559 1.675 1.117 3.35 1.675 6.141 2.791 9.491 0.558 2.233 1.675 4.467 2.234 6.7 0.558 2.233 2.792 4.467 3.349 7.258v0c1.675 3.35 3.35 6.7 5.584 10.05 0.558 1.117 1.675 2.233 2.233 3.35 1.117 1.675 1.675 3.35 2.791 4.466 0.558 1.117 1.675 2.233 2.234 2.792 0.558 1.117 1.117 2.233 2.233 3.35 1.117 1.117 2.233 2.792 3.35 3.908 1.675 2.792 3.908 5.025 6.141 6.7 1.117 1.117 2.233 1.675 3.35 2.791 0.558 0.558 1.117 0.558 1.117 1.117 0.558 0.558 1.117 1.117 2.233 1.675 4.467 2.233 7.816 5.583 11.725 8.933 1.675 1.675 3.35 3.35 5.583 4.466 2.233 1.675 3.908 3.35 6.7 3.908 0 0 0.558 0 0.558 0.559 1.117 1.117 2.792 1.675 3.908 2.233 2.233 1.117 5.025 2.233 7.258 3.35 0.558 0.558 1.675 0.558 2.233 1.117 1.675 0.558 3.35 1.117 5.025 1.674 1.675 0.558 2.792 1.117 4.467 1.117h0.558c1.117 0.558 1.675 0.558 2.792 0 0.558 0 1.117 0 1.116 0.558 0 0.558 0.558 0.558 1.117 0.559 0.558 0 1.117 0 2.233 0 0.558-0.558 0.558-1.117 1.117-2.234 0.558 0.558 1.117 0.558 1.116 0.559 0.558 1.117 1.675 1.117 2.792 1.116h0.558c1.117 0 1.675 0 2.233-0.558 0-0.558 1.117-0.558 1.675-0.558 1.675 0.558 3.35 0.558 5.025 1.116 1.117 0.558 2.792 0.558 3.35-0.558 0.558-0.558 1.117-1.117 2.233-0.558 1.117 0.558 1.675 0.558 2.792 0 0.558 0 1.117 0 1.117 0 1.675 0.558 2.792 0.558 4.466 1.116 2.233 0.558 2.233 0.558 3.908-1.116 0.558-0.558 1.675-0.558 2.233 0 0.558 1.117 0.558 1.675 0.559 2.791 0.558 0 0.558 0 1.116-0.558 0-1.117 0.558-1.117 1.675-1.675 0.558 0.558 0.558 0.558 1.117 0.558 1.117 1.117 1.675 1.117 2.233-0.558 0-0.558 0-1.117 0.559-1.116 0.558 0 1.117 0.558 1.116 0.558 0.558 1.117 1.675 1.675 2.233 2.791 1.117 1.117 2.792 1.117 3.35 0 0.558-0.558 1.117-0.558 1.675-0.558 0-0.558 0-1.117 0-1.675 1.675 1.117 1.117 1.117 0.559 1.117zM89.417 34.559c1.675 0.558 2.792 0.558 3.349-0.558-1.117 0.558-2.233-0.558-3.349 0.558z" fill="#729343" data-fill-palette-color="tertiary"></path></g><g transform="matrix(1,0,0,1,64,142.62182783999998)"><svg viewBox="0 0 192 74.75634432000001" height="74.75634432000001" width="192"><g><svg viewBox="0 0 192 74.75634432000001" height="74.75634432000001" width="192"><g><svg viewBox="0 0 192 74.75634432000001" height="74.75634432000001" width="192"><g><svg viewBox="0 0 192 74.75634432000001" height="74.75634432000001" width="192"><g><svg viewBox="0 0 192 74.75634432000001" height="74.75634432000001" width="192"><g><svg viewBox="0 0 192 40.32" height="40.32" width="192"><g transform="matrix(1,0,0,1,0,0)"><svg width="192" viewBox="3 -35.20000076293945 169.99000549316406 35.70000076293945" height="40.32" data-palette-color="#4e7316"><path d="M13.6 0.1Q8.85 0.1 6.65-0.9 4.45-1.9 3.73-4.28 3-6.65 3-11.6L3-11.6Q3-17.25 3.53-22.1 4.05-26.95 5.05-32.95L5.05-32.95Q5.2-33.95 6.05-34.58 6.9-35.2 8.3-35.2L8.3-35.2Q9.7-35.2 10.43-34.5 11.15-33.8 11.15-32.65L11.15-32.65Q11.15-32.1 11.1-31.85L11.1-31.85Q9.95-24.85 9.43-20.6 8.9-16.35 8.9-11.45L8.9-11.45Q8.9-8.75 9.18-7.48 9.45-6.2 10.28-5.7 11.1-5.2 12.9-5.2L12.9-5.2Q16.6-5.2 23.65-6.55L23.65-6.55Q23.85-6.6 24.3-6.6L24.3-6.6Q25.45-6.6 26.08-5.8 26.7-5 26.7-3.85L26.7-3.85Q26.7-1.65 23.45-1L23.45-1Q20.7-0.45 18.5-0.18 16.3 0.1 13.6 0.1L13.6 0.1ZM54.85-4.8Q55.7-4.65 56.17-4.17 56.65-3.7 56.65-2.5L56.65-2.5Q56.65-1.45 56.1-0.75 55.55-0.05 54.65-0.05L54.65-0.05Q52.5-0.05 51.4-0.6 50.3-1.15 49.45-2.65L49.45-2.65Q47.35 0.5 41.85 0.5L41.85 0.5Q36.1 0.5 33.25-2.88 30.4-6.25 30.4-11.75L30.4-11.75Q30.4-15.4 31.87-18.35 33.35-21.3 36.1-23 38.85-24.7 42.45-24.7L42.45-24.7Q44.5-24.7 46.15-23.88 47.8-23.05 48.65-21.7L48.65-21.7 48.8-22.75Q48.85-23.45 49.45-23.95 50.05-24.45 51.35-24.45L51.35-24.45Q52.85-24.45 53.52-23.75 54.2-23.05 54.05-22L54.05-22Q53.75-20.4 53.4-16.35L53.4-16.35Q53.25-14.35 53.25-11.2L53.25-11.2 53.25-8.85Q53.25-6.75 53.5-5.83 53.75-4.9 54.85-4.8L54.85-4.8ZM47.35-8.9Q47.4-11.05 47.4-15.15L47.4-15.15Q47.4-17.45 45.92-18.7 44.45-19.95 42.55-19.95L42.55-19.95Q39.8-19.95 38.15-17.55 36.5-15.15 36.5-11.8L36.5-11.8Q36.5-8.55 37.95-6.4 39.4-4.25 42.2-4.25L42.2-4.25Q44.5-4.25 45.9-5.45 47.3-6.65 47.35-8.9L47.35-8.9ZM73.85 0Q70.05 0 67.17-1.58 64.3-3.15 62.75-5.93 61.2-8.7 61.2-12.25L61.2-12.25Q61.2-15.95 62.82-19.03 64.45-22.1 67.42-23.9 70.4-25.7 74.25-25.7L74.25-25.7Q78.35-25.7 81.37-23.7 84.4-21.7 85.65-18.7L85.65-18.7Q85.95-17.95 85.95-17.35L85.95-17.35Q85.95-15.95 84-15.45L84-15.45Q83.5-15.3 83-15.3L83-15.3Q82.15-15.3 81.6-15.78 81.05-16.25 80.45-17.25L80.45-17.25Q79.6-18.85 78.15-19.9 76.7-20.95 74.6-20.95L74.6-20.95Q72.45-20.95 70.8-19.78 69.15-18.6 68.22-16.6 67.3-14.6 67.3-12.2L67.3-12.2Q67.3-8.8 69.12-6.78 70.95-4.75 74.45-4.75L74.45-4.75Q77.75-4.75 79.42-6.48 81.1-8.2 81.15-10.4L81.15-10.4Q81.15-11.15 81.85-11.7 82.55-12.25 83.7-12.25L83.7-12.25Q85.1-12.25 85.85-11.7 86.6-11.15 86.6-9.8L86.6-9.8Q86.6-7.4 85.27-5.15 83.95-2.9 81.1-1.45 78.25 0 73.85 0L73.85 0ZM115.44-4.8Q116.29-4.65 116.77-4.17 117.24-3.7 117.24-2.5L117.24-2.5Q117.24-1.45 116.69-0.75 116.14-0.05 115.24-0.05L115.24-0.05Q113.09-0.05 111.99-0.6 110.89-1.15 110.04-2.65L110.04-2.65Q107.94 0.5 102.44 0.5L102.44 0.5Q96.69 0.5 93.84-2.88 90.99-6.25 90.99-11.75L90.99-11.75Q90.99-15.4 92.47-18.35 93.94-21.3 96.69-23 99.44-24.7 103.04-24.7L103.04-24.7Q105.09-24.7 106.74-23.88 108.39-23.05 109.24-21.7L109.24-21.7 109.39-22.75Q109.44-23.45 110.04-23.95 110.64-24.45 111.94-24.45L111.94-24.45Q113.44-24.45 114.12-23.75 114.79-23.05 114.64-22L114.64-22Q114.34-20.4 113.99-16.35L113.99-16.35Q113.84-14.35 113.84-11.2L113.84-11.2 113.84-8.85Q113.84-6.75 114.09-5.83 114.34-4.9 115.44-4.8L115.44-4.8ZM107.94-8.9Q107.99-11.05 107.99-15.15L107.99-15.15Q107.99-17.45 106.52-18.7 105.04-19.95 103.14-19.95L103.14-19.95Q100.39-19.95 98.74-17.55 97.09-15.15 97.09-11.8L97.09-11.8Q97.09-8.55 98.54-6.4 99.99-4.25 102.79-4.25L102.79-4.25Q105.09-4.25 106.49-5.45 107.89-6.65 107.94-8.9L107.94-8.9ZM131.99 0.4Q128.54 0.4 125.94-1.25 123.34-2.9 122.14-5.55L122.14-5.55Q121.79-6.4 121.84-6.85L121.84-6.85Q121.94-7.75 122.84-8.5 123.74-9.25 124.79-9.25L124.79-9.25Q125.49-9.25 125.89-8.93 126.29-8.6 126.79-8L126.79-8Q128.19-6.2 129.29-5.38 130.39-4.55 132.04-4.55L132.04-4.55Q133.59-4.55 134.67-5.25 135.74-5.95 135.74-7.1L135.74-7.1Q135.74-8.35 134.57-9.03 133.39-9.7 130.79-10.6L130.79-10.6Q128.14-11.5 126.52-12.3 124.89-13.1 123.72-14.63 122.54-16.15 122.54-18.5L122.54-18.5Q122.54-20.8 123.84-22.55 125.14-24.3 127.37-25.25 129.59-26.2 132.24-26.2L132.24-26.2Q135.04-26.2 137.12-25.15 139.19-24.1 140.29-22.38 141.39-20.65 141.39-18.65L141.39-18.65Q141.39-17.4 140.77-16.8 140.14-16.2 138.69-16.2L138.69-16.2Q137.29-16.2 136.82-16.65 136.34-17.1 136.19-17.9L136.19-17.9Q135.84-21.25 132.24-21.25L132.24-21.25Q130.44-21.25 129.54-20.48 128.64-19.7 128.64-18.65L128.64-18.65Q128.64-17.4 129.84-16.7 131.04-16 133.69-15.1L133.69-15.1Q136.24-14.3 137.89-13.5 139.54-12.7 140.72-11.2 141.89-9.7 141.89-7.35L141.89-7.35Q141.89-4.7 140.42-2.98 138.94-1.25 136.67-0.43 134.39 0.4 131.99 0.4L131.99 0.4ZM171.19-4.8Q172.04-4.65 172.51-4.17 172.99-3.7 172.99-2.5L172.99-2.5Q172.99-1.45 172.44-0.75 171.89-0.05 170.99-0.05L170.99-0.05Q168.84-0.05 167.74-0.6 166.64-1.15 165.79-2.65L165.79-2.65Q163.69 0.5 158.19 0.5L158.19 0.5Q152.44 0.5 149.59-2.88 146.74-6.25 146.74-11.75L146.74-11.75Q146.74-15.4 148.21-18.35 149.69-21.3 152.44-23 155.19-24.7 158.79-24.7L158.79-24.7Q160.84-24.7 162.49-23.88 164.14-23.05 164.99-21.7L164.99-21.7 165.14-22.75Q165.19-23.45 165.79-23.95 166.39-24.45 167.69-24.45L167.69-24.45Q169.19-24.45 169.86-23.75 170.54-23.05 170.39-22L170.39-22Q170.09-20.4 169.74-16.35L169.74-16.35Q169.59-14.35 169.59-11.2L169.59-11.2 169.59-8.85Q169.59-6.75 169.84-5.83 170.09-4.9 171.19-4.8L171.19-4.8ZM163.69-8.9Q163.74-11.05 163.74-15.15L163.74-15.15Q163.74-17.45 162.26-18.7 160.79-19.95 158.89-19.95L158.89-19.95Q156.14-19.95 154.49-17.55 152.84-15.15 152.84-11.8L152.84-11.8Q152.84-8.55 154.29-6.4 155.74-4.25 158.54-4.25L158.54-4.25Q160.84-4.25 162.24-5.45 163.64-6.65 163.69-8.9L163.69-8.9Z" opacity="1" transform="matrix(1,0,0,1,0,0)" fill="#4e7316" class="undefined-text-0" data-fill-palette-color="primary" id="text-0"></path></svg></g></svg></g><g transform="matrix(1,0,0,1,0,49.83858432)"><svg viewBox="0 0 192 24.91776" height="24.91776" width="192"><g transform="matrix(1,0,0,1,0,0)"><svg width="192" viewBox="1.25 -37.650001525878906 295.1099853515625 38.30000305175781" height="24.91776" data-palette-color="#0a6c2f"><path d="M26.8-34.5L28.75 0 23.4 0 22.6-16.8Q22.45-20.1 22.45-23.15L22.45-23.15Q22.45-27.1 22.6-29.4L22.6-29.4 17.5-6.1 12.45-6.1 7-29.4Q7.2-26.85 7.2-21.55L7.2-21.55Q7.2-18.35 7.15-16.75L7.15-16.75 6.45 0 1.25 0 3.2-34.5 10.15-34.5 15.1-11.4 19.8-34.5 26.8-34.5ZM78.62-6.45Q78.62-4.95 79.07-4.23 79.52-3.5 80.62-3.15L80.62-3.15 79.32 0.65Q75.17 0.15 73.87-3L73.87-3Q72.42-1.2 70.25-0.28 68.07 0.65 65.47 0.65L65.47 0.65Q61.47 0.65 59.12-1.6 56.77-3.85 56.77-7.55L56.77-7.55Q56.77-11.7 60.05-13.95 63.32-16.2 69.32-16.2L69.32-16.2 73.07-16.2 73.07-17.9Q73.07-20.4 71.57-21.55 70.07-22.7 67.22-22.7L67.22-22.7Q65.82-22.7 63.97-22.35 62.12-22 60.22-21.35L60.22-21.35 58.82-25.3Q63.57-27.1 68.07-27.1L68.07-27.1Q73.32-27.1 75.97-24.8 78.62-22.5 78.62-18.25L78.62-18.25 78.62-6.45ZM67.12-3.45Q68.87-3.45 70.5-4.35 72.12-5.25 73.07-6.85L73.07-6.85 73.07-12.7 69.97-12.7Q66.17-12.7 64.42-11.43 62.67-10.15 62.67-7.75L62.67-7.75Q62.67-5.65 63.8-4.55 64.92-3.45 67.12-3.45L67.12-3.45ZM131.1-27.05Q133.15-27.05 135.1-26.4L135.1-26.4 134.15-16.65 130.15-16.65 130.15-22.05Q127.4-22 125.37-19.85 123.35-17.7 122.15-13.8L122.15-13.8 122.15-4 127.45-4 127.45 0 112.65 0 112.65-4 116.55-4 116.55-22.4 112.65-22.4 112.65-26.4 120.8-26.4 121.8-20.3Q123.35-23.7 125.57-25.38 127.8-27.05 131.1-27.05L131.1-27.05ZM172.12-37.65L172.12 0 166.52 0 166.52-37 172.12-37.65ZM189.62-26.4L178.97-14.6 190.72 0 183.87 0 172.52-14.45 183.12-26.4 189.62-26.4ZM224.99-11.4Q225.24-7.55 227.22-5.63 229.19-3.7 232.19-3.7L232.19-3.7Q234.04-3.7 235.72-4.28 237.39-4.85 239.14-6L239.14-6 241.54-2.6Q239.69-1.05 237.19-0.2 234.69 0.65 231.94 0.65L231.94 0.65Q225.89 0.65 222.54-3.13 219.19-6.9 219.19-13.2L219.19-13.2Q219.19-17.15 220.64-20.33 222.09-23.5 224.84-25.3 227.59-27.1 231.24-27.1L231.24-27.1Q236.49-27.1 239.57-23.58 242.64-20.05 242.64-13.9L242.64-13.9Q242.64-12.4 242.49-11.4L242.49-11.4 224.99-11.4ZM231.29-22.95Q228.59-22.95 226.89-21 225.19-19.05 224.94-15.2L224.94-15.2 237.19-15.2Q237.09-18.95 235.59-20.95 234.09-22.95 231.29-22.95L231.29-22.95ZM296.36-1.4Q294.86-0.45 292.86 0.1 290.86 0.65 288.66 0.65L288.66 0.65Q284.16 0.65 281.71-1.68 279.26-4 279.26-8L279.26-8 279.26-22.3 273.41-22.3 273.41-26.4 279.26-26.4 279.26-32.3 284.86-32.95 284.86-26.4 293.81-26.4 293.16-22.3 284.86-22.3 284.86-8.05Q284.86-5.9 285.96-4.88 287.06-3.85 289.46-3.85L289.46-3.85Q292.11-3.85 294.36-5.1L294.36-5.1 296.36-1.4Z" opacity="1" transform="matrix(1,0,0,1,0,0)" fill="#0a6c2f" class="undefined-text-1" data-fill-palette-color="secondary" id="text-1"></path></svg></g></svg></g></svg></g></svg></g></svg></g></svg></g></svg></g></svg></g></svg><rect width="320" height="360" fill="none" stroke="none" visibility="hidden"></rect></g></svg></g></svg>